<?xml version="1.0" encoding="UTF-8"?>
<!DOCTYPE svg PUBLIC "-//W3C//DTD SVG 1.1//EN" "http://www.w3.org/Graphics/SVG/1.1/DTD/svg11.dtd">
<svg version="1.2" width="83.83mm" height="38.11mm" viewBox="2524 3159 8383 3811" preserveAspectRatio="xMidYMid" fill-rule="evenodd" stroke-width="28.222" stroke-linejoin="round" xmlns="http://www.w3.org/2000/svg" xmlns:ooo="http://xml.openoffice.org/svg/export" xmlns:xlink="http://www.w3.org/1999/xlink" xmlns:presentation="http://sun.com/xmlns/staroffice/presentation" xmlns:smil="http://www.w3.org/2001/SMIL20/" xmlns:anim="urn:oasis:names:tc:opendocument:xmlns:animation:1.0" xml:space="preserve">
 <defs class="EmbeddedBulletChars">
  <g id="bullet-char-template-57356" transform="scale(0.00048828125,-0.00048828125)">
   <path d="M 580,1141 L 1163,571 580,0 -4,571 580,1141 Z"/>
  </g>
  <g id="bullet-char-template-57354" transform="scale(0.00048828125,-0.00048828125)">
   <path d="M 8,1128 L 1137,1128 1137,0 8,0 8,1128 Z"/>
  </g>
  <g id="bullet-char-template-10146" transform="scale(0.00048828125,-0.00048828125)">
   <path d="M 174,0 L 602,739 174,1481 1456,739 174,0 Z M 1358,739 L 309,1346 659,739 1358,739 Z"/>
  </g>
  <g id="bullet-char-template-10132" transform="scale(0.00048828125,-0.00048828125)">
   <path d="M 2015,739 L 1276,0 717,0 1260,543 174,543 174,936 1260,936 717,1481 1274,1481 2015,739 Z"/>
  </g>
  <g id="bullet-char-template-10007" transform="scale(0.00048828125,-0.00048828125)">
   <path d="M 0,-2 C -7,14 -16,27 -25,37 L 356,567 C 262,823 215,952 215,954 215,979 228,992 255,992 264,992 276,990 289,987 310,991 331,999 354,1012 L 381,999 492,748 772,1049 836,1024 860,1049 C 881,1039 901,1025 922,1006 886,937 835,863 770,784 769,783 710,716 594,584 L 774,223 C 774,196 753,168 711,139 L 727,119 C 717,90 699,76 672,76 641,76 570,178 457,381 L 164,-76 C 142,-110 111,-127 72,-127 30,-127 9,-110 8,-76 1,-67 -2,-52 -2,-32 -2,-23 -1,-13 0,-2 Z"/>
  </g>
  <g id="bullet-char-template-10004" transform="scale(0.00048828125,-0.00048828125)">
   <path d="M 285,-33 C 182,-33 111,30 74,156 52,228 41,333 41,471 41,549 55,616 82,672 116,743 169,778 240,778 293,778 328,747 346,684 L 369,508 C 377,444 397,411 428,410 L 1163,1116 C 1174,1127 1196,1133 1229,1133 1271,1133 1292,1118 1292,1087 L 1292,965 C 1292,929 1282,901 1262,881 L 442,47 C 390,-6 338,-33 285,-33 Z"/>
  </g>
  <g id="bullet-char-template-9679" transform="scale(0.00048828125,-0.00048828125)">
   <path d="M 813,0 C 632,0 489,54 383,161 276,268 223,411 223,592 223,773 276,916 383,1023 489,1130 632,1184 813,1184 992,1184 1136,1130 1245,1023 1353,916 1407,772 1407,592 1407,412 1353,268 1245,161 1136,54 992,0 813,0 Z"/>
  </g>
  <g id="bullet-char-template-8226" transform="scale(0.00048828125,-0.00048828125)">
   <path d="M 346,457 C 273,457 209,483 155,535 101,586 74,649 74,723 74,796 101,859 155,911 209,963 273,989 346,989 419,989 480,963 531,910 582,859 608,796 608,723 608,648 583,586 532,535 482,483 420,457 346,457 Z"/>
  </g>
  <g id="bullet-char-template-8211" transform="scale(0.00048828125,-0.00048828125)">
   <path d="M -4,459 L 1135,459 1135,606 -4,606 -4,459 Z"/>
  </g>
  <g id="bullet-char-template-61548" transform="scale(0.00048828125,-0.00048828125)">
   <path d="M 173,740 C 173,903 231,1043 346,1159 462,1274 601,1332 765,1332 928,1332 1067,1274 1183,1159 1299,1043 1357,903 1357,740 1357,577 1299,437 1183,322 1067,206 928,148 765,148 601,148 462,206 346,322 231,437 173,577 173,740 Z"/>
  </g>
 </defs>
 <g class="Page">
  <g class="com.sun.star.drawing.CustomShape">
   <g id="id3">
    <rect class="BoundingBox" stroke="none" fill="none" x="2524" y="3159" width="8383" height="3811"/>
    <path fill="rgb(255,255,255)" stroke="none" d="M 6715,6969 L 2524,6969 2524,3159 10906,3159 10906,6969 6715,6969 Z"/>
   </g>
  </g>
  <g class="Group">
   <g class="com.sun.star.drawing.CustomShape">
    <g id="id4">
     <rect class="BoundingBox" stroke="none" fill="none" x="3412" y="4681" width="258" height="258"/>
     <path fill="rgb(0,0,0)" stroke="none" d="M 3668,4810 C 3668,4832 3662,4854 3651,4873 3640,4893 3624,4909 3604,4920 3585,4931 3563,4937 3541,4937 3518,4937 3496,4931 3477,4920 3457,4909 3441,4893 3430,4873 3419,4854 3413,4832 3413,4810 3413,4787 3419,4765 3430,4746 3441,4726 3457,4710 3477,4699 3496,4688 3518,4682 3541,4682 3563,4682 3585,4688 3604,4699 3624,4710 3640,4726 3651,4746 3662,4765 3668,4787 3668,4810 L 3668,4810 Z"/>
     <path fill="none" stroke="rgb(119,136,153)" d="M 3668,4810 C 3668,4832 3662,4854 3651,4873 3640,4893 3624,4909 3604,4920 3585,4931 3563,4937 3541,4937 3518,4937 3496,4931 3477,4920 3457,4909 3441,4893 3430,4873 3419,4854 3413,4832 3413,4810 3413,4787 3419,4765 3430,4746 3441,4726 3457,4710 3477,4699 3496,4688 3518,4682 3541,4682 3563,4682 3585,4688 3604,4699 3624,4710 3640,4726 3651,4746 3662,4765 3668,4787 3668,4810 Z"/>
    </g>
   </g>
   <g class="com.sun.star.drawing.CustomShape">
    <g id="id5">
     <rect class="BoundingBox" stroke="none" fill="none" x="3412" y="5952" width="258" height="258"/>
     <path fill="rgb(0,0,0)" stroke="none" d="M 3668,6081 C 3668,6103 3662,6125 3651,6144 3640,6164 3624,6180 3604,6191 3585,6202 3563,6208 3541,6208 3518,6208 3496,6202 3477,6191 3457,6180 3441,6164 3430,6144 3419,6125 3413,6103 3413,6081 3413,6058 3419,6036 3430,6017 3441,5997 3457,5981 3477,5970 3496,5959 3518,5953 3541,5953 3563,5953 3585,5959 3604,5970 3624,5981 3640,5997 3651,6017 3662,6036 3668,6058 3668,6081 L 3668,6081 Z"/>
     <path fill="none" stroke="rgb(119,136,153)" d="M 3668,6081 C 3668,6103 3662,6125 3651,6144 3640,6164 3624,6180 3604,6191 3585,6202 3563,6208 3541,6208 3518,6208 3496,6202 3477,6191 3457,6180 3441,6164 3430,6144 3419,6125 3413,6103 3413,6081 3413,6058 3419,6036 3430,6017 3441,5997 3457,5981 3477,5970 3496,5959 3518,5953 3541,5953 3563,5953 3585,5959 3604,5970 3624,5981 3640,5997 3651,6017 3662,6036 3668,6058 3668,6081 Z"/>
    </g>
   </g>
   <g class="com.sun.star.drawing.ConnectorShape">
    <g id="id6">
     <rect class="BoundingBox" stroke="none" fill="none" x="3522" y="4918" width="37" height="1054"/>
     <path fill="none" stroke="rgb(0,0,0)" stroke-width="35" stroke-linejoin="round" d="M 3540,4936 L 3540,5953"/>
    </g>
   </g>
   <g class="com.sun.star.drawing.CustomShape">
    <g id="id7">
     <rect class="BoundingBox" stroke="none" fill="none" x="4682" y="5951" width="258" height="258"/>
     <path fill="rgb(0,0,0)" stroke="none" d="M 4938,6080 C 4938,6102 4932,6124 4921,6143 4910,6163 4894,6179 4874,6190 4855,6201 4833,6207 4811,6207 4788,6207 4766,6201 4747,6190 4727,6179 4711,6163 4700,6143 4689,6124 4683,6102 4683,6080 4683,6057 4689,6035 4700,6016 4711,5996 4727,5980 4747,5969 4766,5958 4788,5952 4811,5952 4833,5952 4855,5958 4874,5969 4894,5980 4910,5996 4921,6016 4932,6035 4938,6057 4938,6080 L 4938,6080 Z"/>
     <path fill="none" stroke="rgb(119,136,153)" d="M 4938,6080 C 4938,6102 4932,6124 4921,6143 4910,6163 4894,6179 4874,6190 4855,6201 4833,6207 4811,6207 4788,6207 4766,6201 4747,6190 4727,6179 4711,6163 4700,6143 4689,6124 4683,6102 4683,6080 4683,6057 4689,6035 4700,6016 4711,5996 4727,5980 4747,5969 4766,5958 4788,5952 4811,5952 4833,5952 4855,5958 4874,5969 4894,5980 4910,5996 4921,6016 4932,6035 4938,6057 4938,6080 Z"/>
    </g>
   </g>
   <g class="com.sun.star.drawing.ConnectorShape">
    <g id="id8">
     <rect class="BoundingBox" stroke="none" fill="none" x="3649" y="6061" width="1053" height="38"/>
     <path fill="none" stroke="rgb(0,0,0)" stroke-width="35" stroke-linejoin="round" d="M 4683,6079 L 3667,6080"/>
    </g>
   </g>
   <g class="com.sun.star.drawing.ConnectorShape">
    <g id="id9">
     <rect class="BoundingBox" stroke="none" fill="none" x="3612" y="4881" width="1127" height="1127"/>
     <path fill="none" stroke="rgb(0,0,0)" stroke-width="35" stroke-linejoin="round" d="M 4720,5989 L 3630,4899"/>
    </g>
   </g>
   <g class="com.sun.star.drawing.CustomShape">
    <g id="id10">
     <rect class="BoundingBox" stroke="none" fill="none" x="3793" y="5570" width="258" height="258"/>
     <path fill="rgb(0,0,0)" stroke="none" d="M 4049,5699 C 4049,5721 4043,5743 4032,5762 4021,5782 4005,5798 3985,5809 3966,5820 3944,5826 3922,5826 3899,5826 3877,5820 3858,5809 3838,5798 3822,5782 3811,5762 3800,5743 3794,5721 3794,5699 3794,5676 3800,5654 3811,5635 3822,5615 3838,5599 3858,5588 3877,5577 3899,5571 3922,5571 3944,5571 3966,5577 3985,5588 4005,5599 4021,5615 4032,5635 4043,5654 4049,5676 4049,5699 L 4049,5699 Z"/>
     <path fill="none" stroke="rgb(119,136,153)" d="M 4049,5699 C 4049,5721 4043,5743 4032,5762 4021,5782 4005,5798 3985,5809 3966,5820 3944,5826 3922,5826 3899,5826 3877,5820 3858,5809 3838,5798 3822,5782 3811,5762 3800,5743 3794,5721 3794,5699 3794,5676 3800,5654 3811,5635 3822,5615 3838,5599 3858,5588 3877,5577 3899,5571 3922,5571 3944,5571 3966,5577 3985,5588 4005,5599 4021,5615 4032,5635 4043,5654 4049,5676 4049,5699 Z"/>
    </g>
   </g>
   <g class="com.sun.star.drawing.ConnectorShape">
    <g id="id11">
     <rect class="BoundingBox" stroke="none" fill="none" x="3649" y="5770" width="201" height="329"/>
     <path fill="none" stroke="rgb(0,0,0)" stroke-width="35" stroke-linejoin="round" d="M 3667,6080 L 3831,5788"/>
    </g>
   </g>
   <g class="com.sun.star.drawing.ConnectorShape">
    <g id="id12">
     <rect class="BoundingBox" stroke="none" fill="none" x="4030" y="5680" width="672" height="418"/>
     <path fill="none" stroke="rgb(0,0,0)" stroke-width="35" stroke-linejoin="round" d="M 4683,6079 L 4048,5698"/>
    </g>
   </g>
   <g class="com.sun.star.drawing.ConnectorShape">
    <g id="id13">
     <rect class="BoundingBox" stroke="none" fill="none" x="3522" y="4918" width="328" height="709"/>
     <path fill="none" stroke="rgb(0,0,0)" stroke-width="35" stroke-linejoin="round" d="M 3831,5608 L 3540,4936"/>
    </g>
   </g>
  </g>
  <g class="Group">
   <g class="com.sun.star.drawing.CustomShape">
    <g id="id14">
     <rect class="BoundingBox" stroke="none" fill="none" x="7809" y="4116" width="258" height="258"/>
     <path fill="rgb(0,0,0)" stroke="none" d="M 8040,4169 C 8054,4187 8062,4208 8064,4230 8067,4252 8063,4275 8054,4295 8046,4316 8031,4334 8013,4347 7995,4360 7974,4368 7952,4371 7930,4373 7907,4370 7887,4361 7866,4352 7848,4338 7835,4320 7822,4302 7813,4280 7811,4258 7809,4236 7812,4213 7821,4193 7830,4172 7844,4155 7862,4141 7880,4128 7901,4120 7924,4117 7946,4115 7968,4118 7989,4127 8009,4136 8027,4150 8040,4169 L 8040,4169 Z"/>
     <path fill="none" stroke="rgb(169,169,169)" d="M 8040,4169 C 8054,4187 8062,4208 8064,4230 8067,4252 8063,4275 8054,4295 8046,4316 8031,4334 8013,4347 7995,4360 7974,4368 7952,4371 7930,4373 7907,4370 7887,4361 7866,4352 7848,4338 7835,4320 7822,4302 7813,4280 7811,4258 7809,4236 7812,4213 7821,4193 7830,4172 7844,4155 7862,4141 7880,4128 7901,4120 7924,4117 7946,4115 7968,4118 7989,4127 8009,4136 8027,4150 8040,4169 Z"/>
    </g>
   </g>
   <g class="com.sun.star.drawing.CustomShape">
    <g id="id15">
     <rect class="BoundingBox" stroke="none" fill="none" x="8562" y="5139" width="258" height="258"/>
     <path fill="rgb(0,0,0)" stroke="none" d="M 8793,5192 C 8807,5210 8815,5231 8817,5253 8820,5275 8816,5298 8807,5318 8799,5339 8784,5357 8766,5370 8748,5383 8727,5391 8705,5394 8683,5396 8660,5393 8640,5384 8619,5375 8601,5361 8588,5343 8575,5325 8566,5303 8564,5281 8562,5259 8565,5236 8574,5216 8583,5195 8597,5178 8615,5164 8633,5151 8654,5143 8677,5140 8699,5138 8721,5141 8742,5150 8762,5159 8780,5173 8793,5192 L 8793,5192 Z"/>
     <path fill="none" stroke="rgb(169,169,169)" d="M 8793,5192 C 8807,5210 8815,5231 8817,5253 8820,5275 8816,5298 8807,5318 8799,5339 8784,5357 8766,5370 8748,5383 8727,5391 8705,5394 8683,5396 8660,5393 8640,5384 8619,5375 8601,5361 8588,5343 8575,5325 8566,5303 8564,5281 8562,5259 8565,5236 8574,5216 8583,5195 8597,5178 8615,5164 8633,5151 8654,5143 8677,5140 8699,5138 8721,5141 8742,5150 8762,5159 8780,5173 8793,5192 Z"/>
    </g>
   </g>
   <g class="com.sun.star.drawing.ConnectorShape">
    <g id="id16">
     <rect class="BoundingBox" stroke="none" fill="none" x="7996" y="4329" width="639" height="855"/>
     <path fill="none" stroke="rgb(0,0,0)" stroke-width="35" stroke-linejoin="round" d="M 8014,4347 L 8616,5165"/>
    </g>
   </g>
   <g class="com.sun.star.drawing.CustomShape">
    <g id="id17">
     <rect class="BoundingBox" stroke="none" fill="none" x="9584" y="4386" width="258" height="258"/>
     <path fill="rgb(0,0,0)" stroke="none" d="M 9815,4439 C 9829,4457 9837,4478 9839,4500 9842,4522 9838,4545 9829,4565 9821,4586 9806,4604 9788,4617 9770,4630 9749,4638 9727,4641 9705,4643 9682,4640 9662,4631 9641,4622 9623,4608 9610,4590 9597,4572 9588,4550 9586,4528 9584,4506 9587,4483 9596,4463 9605,4442 9619,4425 9637,4411 9655,4398 9676,4390 9699,4387 9721,4385 9743,4388 9764,4397 9784,4406 9802,4420 9815,4439 L 9815,4439 Z"/>
     <path fill="none" stroke="rgb(169,169,169)" d="M 9815,4439 C 9829,4457 9837,4478 9839,4500 9842,4522 9838,4545 9829,4565 9821,4586 9806,4604 9788,4617 9770,4630 9749,4638 9727,4641 9705,4643 9682,4640 9662,4631 9641,4622 9623,4608 9610,4590 9597,4572 9588,4550 9586,4528 9584,4506 9587,4483 9596,4463 9605,4442 9619,4425 9637,4411 9655,4398 9676,4390 9699,4387 9721,4385 9743,4388 9764,4397 9784,4406 9802,4420 9815,4439 Z"/>
    </g>
   </g>
   <g class="com.sun.star.drawing.ConnectorShape">
    <g id="id18">
     <rect class="BoundingBox" stroke="none" fill="none" x="8776" y="4571" width="854" height="639"/>
     <path fill="none" stroke="rgb(0,0,0)" stroke-width="35" stroke-linejoin="round" d="M 9611,4589 L 8794,5191"/>
    </g>
   </g>
   <g class="com.sun.star.drawing.ConnectorShape">
    <g id="id19">
     <rect class="BoundingBox" stroke="none" fill="none" x="8046" y="4245" width="1560" height="269"/>
     <path fill="none" stroke="rgb(0,0,0)" stroke-width="35" stroke-linejoin="round" d="M 9587,4495 L 8064,4263"/>
    </g>
   </g>
  </g>
  <g class="com.sun.star.drawing.ClosedBezierShape">
   <g id="id20">
    <rect class="BoundingBox" stroke="none" fill="none" x="2622" y="3253" width="8084" height="3588"/>
    <path fill="none" stroke="rgb(255,212,121)" stroke-width="106" stroke-linejoin="round" d="M 2725,5908 C 2770,6009 2831,6104 2913,6179 3006,6264 3088,6370 3200,6433 3310,6495 3415,6574 3544,6597 3653,6617 4091,6775 4216,6785 4352,6796 5197,6752 5314,6720 5407,6695 5834,6605 5953,6588 6058,6573 6157,6533 6264,6531 6424,6528 6940,6537 7035,6547 7141,6558 7247,6553 7354,6556 7454,6559 7925,6588 8059,6597 8224,6608 8393,6623 8559,6605 8689,6591 8820,6567 8944,6515 9093,6453 9239,6383 9386,6318 9494,6270 9542,6174 9636,6080 L 10017,5699 C 10144,5572 10223,5568 10271,5445 10315,5330 10438,5370 10484,5257 10532,5141 10580,5023 10616,4904 10648,4795 10677,4665 10616,4560 10556,4458 10426,4459 10353,4372 10258,4259 10092,4301 10017,4175 9946,4058 9986,4130 9890,4048 9803,3974 9489,4130 9386,4093 9301,4063 8946,3986 8878,3929 8772,3840 8638,3817 8526,3740 8410,3661 7934,3470 7821,3454 7717,3440 7319,3411 7223,3413 7126,3415 6733,3438 6633,3429 6534,3420 6096,3423 5978,3388 5865,3355 5754,3307 5634,3306 5530,3305 5125,3391 5019,3396 4917,3400 4568,3619 4478,3675 4331,3765 3973,3562 3864,3643 3750,3729 3579,3740 3520,3897 3460,4052 3371,4161 3286,4302 3219,4411 2830,4813 2774,4945 2719,5075 2680,5214 2676,5355 2673,5463 2682,5814 2725,5908 Z"/>
   </g>
  </g>
  <g class="com.sun.star.drawing.CustomShape">
   <g id="id21">
    <rect class="BoundingBox" stroke="none" fill="none" x="4936" y="3920" width="258" height="258"/>
    <path fill="rgb(0,0,0)" stroke="none" d="M 5192,4049 C 5192,4071 5186,4093 5175,4112 5164,4132 5148,4148 5128,4159 5109,4170 5087,4176 5065,4176 5042,4176 5020,4170 5001,4159 4981,4148 4965,4132 4954,4112 4943,4093 4937,4071 4937,4049 4937,4026 4943,4004 4954,3985 4965,3965 4981,3949 5001,3938 5020,3927 5042,3921 5065,3921 5087,3921 5109,3927 5128,3938 5148,3949 5164,3965 5175,3985 5186,4004 5192,4026 5192,4049 L 5192,4049 Z"/>
    <path fill="none" stroke="rgb(169,169,169)" d="M 5192,4049 C 5192,4071 5186,4093 5175,4112 5164,4132 5148,4148 5128,4159 5109,4170 5087,4176 5065,4176 5042,4176 5020,4170 5001,4159 4981,4148 4965,4132 4954,4112 4943,4093 4937,4071 4937,4049 4937,4026 4943,4004 4954,3985 4965,3965 4981,3949 5001,3938 5020,3927 5042,3921 5065,3921 5087,3921 5109,3927 5128,3938 5148,3949 5164,3965 5175,3985 5186,4004 5192,4026 5192,4049 Z"/>
   </g>
  </g>
  <g class="Group">
   <g class="com.sun.star.drawing.CustomShape">
    <g id="id22">
     <rect class="BoundingBox" stroke="none" fill="none" x="8102" y="5987" width="258" height="258"/>
     <path fill="rgb(0,0,0)" stroke="none" d="M 8342,6053 C 8353,6072 8358,6094 8358,6116 8358,6139 8352,6161 8340,6180 8329,6199 8313,6215 8293,6226 8274,6237 8252,6243 8229,6243 8207,6242 8185,6236 8166,6225 8147,6214 8131,6197 8120,6178 8109,6158 8103,6136 8103,6114 8103,6092 8110,6070 8121,6050 8132,6031 8149,6015 8168,6004 8187,5993 8210,5987 8232,5988 8254,5988 8276,5994 8295,6005 8315,6017 8331,6033 8342,6053 L 8342,6053 Z"/>
     <path fill="none" stroke="rgb(169,169,169)" d="M 8342,6053 C 8353,6072 8358,6094 8358,6116 8358,6139 8352,6161 8340,6180 8329,6199 8313,6215 8293,6226 8274,6237 8252,6243 8229,6243 8207,6242 8185,6236 8166,6225 8147,6214 8131,6197 8120,6178 8109,6158 8103,6136 8103,6114 8103,6092 8110,6070 8121,6050 8132,6031 8149,6015 8168,6004 8187,5993 8210,5987 8232,5988 8254,5988 8276,5994 8295,6005 8315,6017 8331,6033 8342,6053 Z"/>
    </g>
   </g>
   <g class="com.sun.star.drawing.CustomShape">
    <g id="id23">
     <rect class="BoundingBox" stroke="none" fill="none" x="9208" y="5363" width="258" height="258"/>
     <path fill="rgb(0,0,0)" stroke="none" d="M 9448,5429 C 9459,5448 9464,5470 9464,5492 9464,5515 9458,5537 9446,5556 9435,5575 9419,5591 9399,5602 9380,5613 9358,5619 9335,5619 9313,5618 9291,5612 9272,5601 9253,5590 9237,5573 9226,5554 9215,5534 9209,5512 9209,5490 9209,5468 9216,5446 9227,5426 9238,5407 9255,5391 9274,5380 9293,5369 9316,5363 9338,5364 9360,5364 9382,5370 9401,5381 9421,5393 9437,5409 9448,5429 L 9448,5429 Z"/>
     <path fill="none" stroke="rgb(169,169,169)" d="M 9448,5429 C 9459,5448 9464,5470 9464,5492 9464,5515 9458,5537 9446,5556 9435,5575 9419,5591 9399,5602 9380,5613 9358,5619 9335,5619 9313,5618 9291,5612 9272,5601 9253,5590 9237,5573 9226,5554 9215,5534 9209,5512 9209,5490 9209,5468 9216,5446 9227,5426 9238,5407 9255,5391 9274,5380 9293,5369 9316,5363 9338,5364 9360,5364 9382,5370 9401,5381 9421,5393 9437,5409 9448,5429 Z"/>
    </g>
   </g>
   <g class="com.sun.star.drawing.ConnectorShape">
    <g id="id24">
     <rect class="BoundingBox" stroke="none" fill="none" x="8323" y="5535" width="921" height="536"/>
     <path fill="none" stroke="rgb(0,0,0)" stroke-width="35" stroke-linejoin="round" d="M 8341,6052 L 9225,5553"/>
    </g>
   </g>
  </g>
  <g class="Group">
   <g class="com.sun.star.drawing.CustomShape">
    <g id="id25">
     <rect class="BoundingBox" stroke="none" fill="none" x="6224" y="3859" width="258" height="258"/>
     <path fill="rgb(0,0,0)" stroke="none" d="M 6434,4086 C 6416,4101 6396,4110 6374,4114 6351,4117 6329,4115 6308,4107 6287,4099 6268,4086 6254,4068 6240,4051 6231,4030 6227,4008 6223,3986 6226,3964 6234,3943 6242,3922 6255,3903 6272,3889 6289,3875 6310,3866 6332,3862 6354,3858 6377,3861 6398,3868 6419,3876 6437,3890 6452,3907 6466,3924 6475,3945 6479,3967 6482,3989 6480,4012 6472,4033 6464,4054 6451,4072 6434,4086 L 6434,4086 Z"/>
     <path fill="none" stroke="rgb(169,169,169)" d="M 6434,4086 C 6416,4101 6396,4110 6374,4114 6351,4117 6329,4115 6308,4107 6287,4099 6268,4086 6254,4068 6240,4051 6231,4030 6227,4008 6223,3986 6226,3964 6234,3943 6242,3922 6255,3903 6272,3889 6289,3875 6310,3866 6332,3862 6354,3858 6377,3861 6398,3868 6419,3876 6437,3890 6452,3907 6466,3924 6475,3945 6479,3967 6482,3989 6480,4012 6472,4033 6464,4054 6451,4072 6434,4086 Z"/>
    </g>
   </g>
   <g class="com.sun.star.drawing.CustomShape">
    <g id="id26">
     <rect class="BoundingBox" stroke="none" fill="none" x="5241" y="4664" width="258" height="258"/>
     <path fill="rgb(0,0,0)" stroke="none" d="M 5451,4891 C 5433,4906 5413,4915 5391,4919 5368,4922 5346,4920 5325,4912 5304,4904 5285,4891 5271,4873 5257,4856 5248,4835 5244,4813 5240,4791 5243,4769 5251,4748 5259,4727 5272,4708 5289,4694 5306,4680 5327,4671 5349,4667 5371,4663 5394,4666 5415,4673 5436,4681 5454,4695 5469,4712 5483,4729 5492,4750 5496,4772 5499,4794 5497,4817 5489,4838 5481,4859 5468,4877 5451,4891 L 5451,4891 Z"/>
     <path fill="none" stroke="rgb(169,169,169)" d="M 5451,4891 C 5433,4906 5413,4915 5391,4919 5368,4922 5346,4920 5325,4912 5304,4904 5285,4891 5271,4873 5257,4856 5248,4835 5244,4813 5240,4791 5243,4769 5251,4748 5259,4727 5272,4708 5289,4694 5306,4680 5327,4671 5349,4667 5371,4663 5394,4666 5415,4673 5436,4681 5454,4695 5469,4712 5483,4729 5492,4750 5496,4772 5499,4794 5497,4817 5489,4838 5481,4859 5468,4877 5451,4891 Z"/>
    </g>
   </g>
   <g class="com.sun.star.drawing.ConnectorShape">
    <g id="id27">
     <rect class="BoundingBox" stroke="none" fill="none" x="5450" y="4051" width="823" height="681"/>
     <path fill="none" stroke="rgb(0,0,0)" stroke-width="35" stroke-linejoin="round" d="M 6254,4069 L 5468,4713"/>
    </g>
   </g>
   <g class="com.sun.star.drawing.CustomShape">
    <g id="id28">
     <rect class="BoundingBox" stroke="none" fill="none" x="6046" y="5646" width="258" height="258"/>
     <path fill="rgb(0,0,0)" stroke="none" d="M 6256,5873 C 6238,5888 6218,5897 6196,5901 6173,5904 6151,5902 6130,5894 6109,5886 6090,5873 6076,5855 6062,5838 6053,5817 6049,5795 6045,5773 6048,5751 6056,5730 6064,5709 6077,5690 6094,5676 6111,5662 6132,5653 6154,5649 6176,5645 6199,5648 6220,5655 6241,5663 6259,5677 6274,5694 6288,5711 6297,5732 6301,5754 6304,5776 6302,5799 6294,5820 6286,5841 6273,5859 6256,5873 L 6256,5873 Z"/>
     <path fill="none" stroke="rgb(169,169,169)" d="M 6256,5873 C 6238,5888 6218,5897 6196,5901 6173,5904 6151,5902 6130,5894 6109,5886 6090,5873 6076,5855 6062,5838 6053,5817 6049,5795 6045,5773 6048,5751 6056,5730 6064,5709 6077,5690 6094,5676 6111,5662 6132,5653 6154,5649 6176,5645 6199,5648 6220,5655 6241,5663 6259,5677 6274,5694 6288,5711 6297,5732 6301,5754 6304,5776 6302,5799 6294,5820 6286,5841 6273,5859 6256,5873 Z"/>
    </g>
   </g>
   <g class="com.sun.star.drawing.ConnectorShape">
    <g id="id29">
     <rect class="BoundingBox" stroke="none" fill="none" x="5433" y="4874" width="681" height="822"/>
     <path fill="none" stroke="rgb(0,0,0)" stroke-width="35" stroke-linejoin="round" d="M 6095,5677 L 5451,4892"/>
    </g>
   </g>
   <g class="com.sun.star.drawing.ConnectorShape">
    <g id="id30">
     <rect class="BoundingBox" stroke="none" fill="none" x="6170" y="4097" width="189" height="1570"/>
     <path fill="none" stroke="rgb(0,0,0)" stroke-width="35" stroke-linejoin="round" d="M 6188,5648 L 6340,4115"/>
    </g>
   </g>
   <g class="com.sun.star.drawing.CustomShape">
    <g id="id31">
     <rect class="BoundingBox" stroke="none" fill="none" x="7055" y="5477" width="258" height="258"/>
     <path fill="rgb(0,0,0)" stroke="none" d="M 7265,5704 C 7247,5719 7227,5728 7205,5732 7182,5735 7160,5733 7139,5725 7118,5717 7099,5704 7085,5686 7071,5669 7062,5648 7058,5626 7054,5604 7057,5582 7065,5561 7073,5540 7086,5521 7103,5507 7120,5493 7141,5484 7163,5480 7185,5476 7208,5479 7229,5486 7250,5494 7268,5508 7283,5525 7297,5542 7306,5563 7310,5585 7313,5607 7311,5630 7303,5651 7295,5672 7282,5690 7265,5704 L 7265,5704 Z"/>
     <path fill="none" stroke="rgb(169,169,169)" d="M 7265,5704 C 7247,5719 7227,5728 7205,5732 7182,5735 7160,5733 7139,5725 7118,5717 7099,5704 7085,5686 7071,5669 7062,5648 7058,5626 7054,5604 7057,5582 7065,5561 7073,5540 7086,5521 7103,5507 7120,5493 7141,5484 7163,5480 7185,5476 7208,5479 7229,5486 7250,5494 7268,5508 7283,5525 7297,5542 7306,5563 7310,5585 7313,5607 7311,5630 7303,5651 7295,5672 7282,5690 7265,5704 Z"/>
    </g>
   </g>
   <g class="com.sun.star.drawing.ConnectorShape">
    <g id="id32">
     <rect class="BoundingBox" stroke="none" fill="none" x="6284" y="5575" width="792" height="232"/>
     <path fill="none" stroke="rgb(0,0,0)" stroke-width="35" stroke-linejoin="round" d="M 6302,5788 L 7057,5593"/>
    </g>
   </g>
  </g>
 </g>
</svg>